# xmcd CD database file
#
# Track frame offsets:
#	150
#	11530
#	25198
#	39488
#	50848
#	65385
#	77808
#	93270
#	108460
#	123003
#	139088
#	156013
#	170948
#	183533
#	194383
#	206480
#	219458
#	238648
#	248380
#	265303
#	282178
#	296425
#
# Disc length: 4127 seconds
#
# Revision: 2
# Processed by: cddbd v1.5.2PL0 Copyright (c) Steve Scherf et al.
# Submitted via: CDex 1.51
#
DISCID=39101d16
DTITLE=Various Artist - American Roots (Disk 2)
DYEAR=1992
DGENRE=Country
TTITLE0=On The Road Again - Willie Nelson
TTITLE1=It Ain't Me Baby - Johnny Cash
TTITLE2=Eagle When She Flies - Dolly Parton
TTITLE3=The Battle Of New Orleans - Johnny Horton
TTITLE4=I Married Her Just Because She Looks Like You - Lyle Lovett
TTITLE5=Panama Red - New Riders Of The Purple Sage
TTITLE6=Rockin' Years - Ricky Van Shelton and Dolly Parton
TTITLE7=Down At The Twist And Shout - Mary Chapin Carpenter
TTITLE8=Willie, Waylon And Me - David Allan Coe
TTITLE9=(Ghost) Riders In The Sky - Marty Robbins
TTITLE10=This Land Is Your Land - Pete Seeger
TTITLE11=On The Inside - Rosanne Cash
TTITLE12=Chains Of Gold - Sweetheart Of Rodeo
TTITLE13=Uncle Penn - Ricky Skaggs
TTITLE14=The Most Beautiful Girll - Charlie Rich
TTITLE15=The Bird - George Jones
TTITLE16=Ode To Billy Joe - Tammy Wynette
TTITLE17=Snowbird - Lynn Anderson
TTITLE18=Country Boy - Ricky Skaggs
TTITLE19=Stay (Don't Be Cruel) - Rodney Crowell
TTITLE20=Tennesse Flat Top Box - Rosanne Cash
TTITLE21=The Jamestown Ferry - Tanya Tucker
EXTD=YEAR: 1992
EXTT0=
EXTT1=
EXTT2=
EXTT3=
EXTT4=
EXTT5=
EXTT6=
EXTT7=
EXTT8=
EXTT9=
EXTT10=
EXTT11=
EXTT12=
EXTT13=
EXTT14=
EXTT15=
EXTT16=
EXTT17=
EXTT18=
EXTT19=
EXTT20=
EXTT21=
PLAYORDER=
